#!OML:ASF Y:\EmotionMaleHayes\Project 1\Capture day 1\Session 1\Male1.ASF
:FULLY-SPECIFIED
:DEGREES
433
root 44.7343 17.3704 -1.5012 -148.405 93.9806 -137.966
lowerback 9.5114 2.84585 -6.10425
upperback -0.905171 3.02089 -1.56058
thorax -6.53487 1.68145 1.32435
lowerneck -20.6403 0.350627 3.48048
upperneck 18.7479 -0.402541 -0.629069
head 9.30514 0.0177294 -0.840975
rclavicle -2.20651e-014 2.78299e-014
rhumerus -45.3754 -2.69371 -80.1523
rradius 43.5512
rwrist -15.0642
rhand -15.8376 -33.2218
rfingers 7.12502
rthumb 10.3568 -62.9468
lclavicle -2.20651e-014 2.78299e-014
lhumerus -39.621 -14.9237 87.1166
lradius 54.8164
lwrist 6.68762
lhand -20.353 -21.9439
lfingers 7.12502
lthumb 5.99898 7.9512
rfemur 14.0283 -0.010468 10.2639
rtibia 8.74384
rfoot -375 -4.84122
rtoes 7.46326
lfemur 15.2805 0.229735 -20.0237
ltibia 5.85485
lfoot 347.974 7.96726
ltoes -2.13839
434
root 44.7328 17.3685 -1.50226 -150.044 94.0072 -139.653
lowerback 9.49382 2.87379 -6.00537
upperback -0.867046 3.0745 -1.51617
thorax -6.48495 1.70311 1.30979
lowerneck -21.2318 0.16696 3.15458
upperneck 19.2677 -0.667755 -0.247821
head 9.5904 -0.0762085 -0.695558
rclavicle 1.25234e-014 1.03368e-014
rhumerus -45.3083 -2.74208 -80.1193
rradius 44.0761
rwrist -15.2136
rhand -16.1051 -32.9192
rfingers 7.12502
rthumb 10.0987 -62.6569
lclavicle 1.25234e-014 1.03368e-014
lhumerus -39.5726 -15.0084 87.1441
lradius 54.5991
lwrist 6.77538
lhand -20.2517 -22.1118
lfingers 7.12502
lthumb 6.09685 7.78049
rfemur 13.9763 0.149672 10.4227
rtibia 8.69168
rfoot -375.017 -4.91136
rtoes 7.58248
lfemur 15.2048 0.2981 -19.8927
ltibia 5.92355
lfoot 347.92 7.96613
ltoes -2.68209
435
root 44.7221 17.37 -1.49386 -153.923 93.9354 -143.636
lowerback 9.5681 2.89456 -5.83366
upperback -0.906515 3.11793 -1.42029
thorax -6.56784 1.72118 1.30315
lowerneck -20.7932 0.254634 3.24024
upperneck 18.7641 -0.545819 -0.287565
head 9.33708 -0.0266025 -0.703444
rclavicle -6.75868e-015 -1.51076e-014
rhumerus -45.3338 -2.65016 -80.1954
rradius 44.5758
rwrist -15.4485
rhand -16.2533 -32.857
rfingers 7.12502
rthumb 9.95583 -62.6016
lclavicle -6.75868e-015 -1.51076e-014
lhumerus -39.6312 -15.0747 87.1417
lradius 54.4392
lwrist 6.8455
lhand -19.9641 -22.0029
lfingers 7.12502
lthumb 6.37443 7.88114
rfemur 13.8075 0.686495 11.0508
rtibia 8.65915
rfoot -375.089 -5.42224
rtoes 7.91848
lfemur 14.9852 0.262073 -19.4526
ltibia 6.04951
lfoot 347.857 7.97076
ltoes -2.20689
436
root 44.7316 17.3665 -1.498 -151.615 93.9895 -141.299
lowerback 9.52261 2.88553 -5.93742
upperback -0.846115 3.09852 -1.4707
thorax -6.47938 1.71247 1.31534
lowerneck -20.6462 0.266659 3.46112
upperneck 18.5376 -0.536285 -0.534129
head 9.23041 -0.0390144 -0.822511
rclavicle -5.46658e-015 2.46493e-014
rhumerus -45.2814 -2.5374 -80.2867
rradius 44.9573
rwrist -15.5921
rhand -16.3288 -32.812
rfingers 7.12502
rthumb 9.88298 -62.5601
lclavicle -5.46658e-015 2.46493e-014
lhumerus -39.6627 -15.1714 87.1422
lradius 54.1781
lwrist 6.74866
lhand -19.8599 -21.8258
lfingers 7.12502
lthumb 6.47503 8.05525
rfemur 13.9691 0.533483 10.7556
rtibia 8.51082
rfoot -375.025 -5.24732
rtoes 8.03541
lfemur 15.1016 0.234265 -19.7151
ltibia 5.9339
lfoot 347.876 8.01034
ltoes -1.83541
437
root 44.7474 17.3679 -1.50902 -141.941 94.3148 -131.746
lowerback 9.21624 2.84272 -6.58491
upperback -0.778713 2.99001 -1.67859
thorax -6.25078 1.67476 1.4907
lowerneck -20.7386 0.272001 3.52471
upperneck 18.5483 -0.540908 -0.589592
head 9.25007 -0.0431817 -0.853077
rclavicle -1.68967e-014 -7.95139e-015
rhumerus -45.127 -2.48098 -80.3474
rradius 45.2676
rwrist -15.5954
rhand -16.5141 -32.6046
rfingers 7.12502
rthumb 9.70417 -62.3611
lclavicle -1.68967e-014 -7.95139e-015
lhumerus -39.7109 -15.1708 87.1563
lradius 53.9522
lwrist 6.57937
lhand -19.8927 -21.8326
lfingers 7.12502
lthumb 6.4434 8.04942
rfemur 14.0166 -0.121941 9.49109
rtibia 8.37055
rfoot -374.931 -4.57565
rtoes 7.65832
lfemur 15.0209 0.317352 -20.7583
ltibia 5.87575
lfoot 347.935 7.97703
ltoes -2.20569
438
root 44.7349 17.3688 -1.50376 -147.206 94.2106 -137.117
lowerback 9.30034 2.88528 -6.28552
upperback -0.802706 3.07575 -1.55397
thorax -6.32066 1.70924 1.43717
lowerneck -20.7602 0.2752 3.38528
upperneck 18.5572 -0.548008 -0.350482
head 9.25849 -0.0283589 -0.748511
rclavicle -2.47487e-014 3.49861e-014
rhumerus -44.9983 -2.42451 -80.427
rradius 45.4996
rwrist -15.7138
rhand -16.6586 -32.5764
rfingers 7.12502
rthumb 9.56473 -62.3393
lclavicle -2.47487e-014 3.49861e-014
lhumerus -39.805 -15.2545 87.2219
lradius 53.6407
lwrist 6.27898
lhand -20.097 -22.1043
lfingers 7.12502
lthumb 6.24618 7.7836
rfemur 13.795 0.356325 10.1931
rtibia 8.42951
rfoot -375.046 -4.90719
rtoes 7.96002
lfemur 14.8565 0.307347 -20.223
ltibia 5.94262
lfoot 347.863 8.04396
ltoes -2.27819
439
root 44.744 17.368 -1.50672 -147.078 94.2024 -137.012
lowerback 9.15556 2.8851 -6.2617
upperback -0.733718 3.09423 -1.53752
thorax -6.16603 1.71359 1.44797
lowerneck -20.7376 0.281358 3.25761
upperneck 18.4911 -0.535236 -0.1897
head 9.23275 -0.0140468 -0.669937
rclavicle 1.13307e-014 -1.59028e-014
rhumerus -44.8498 -2.30601 -80.5025
rradius 45.6066
rwrist -15.8743
rhand -16.7402 -32.4423
rfingers 7.12502
rthumb 9.48604 -62.2088
lclavicle 1.13307e-014 -1.59028e-014
lhumerus -39.8499 -15.3722 87.3506
lradius 53.1335
lwrist 5.6053
lhand -20.6084 -22.3598
lfingers 7.12502
lthumb 5.75244 7.5421
rfemur 13.8696 0.206611 10.1182
rtibia 8.35731
rfoot -375.395 -4.70306
rtoes 8.84215
lfemur 14.9193 0.339778 -20.2533
ltibia 5.8568
lfoot 347.796 7.95243
ltoes -2.31039
440
root 44.7528 17.368 -1.51427 -144.708 94.233 -134.695
lowerback 8.99565 2.82397 -6.36263
upperback -0.66578 3.01789 -1.56047
thorax -6.00173 1.675 1.50179
lowerneck -20.7788 0.31611 3.26564
upperneck 18.4281 -0.480484 -0.242506
head 9.21885 0.00439895 -0.681905
rclavicle 1.88845e-015 -2.54444e-014
rhumerus -44.6779 -2.08247 -80.6161
rradius 45.7058
rwrist -15.9233
rhand -16.859 -31.9179
rfingers 7.12502
rthumb 9.37141 -61.6896
lclavicle 1.88845e-015 -2.54444e-014
lhumerus -39.8485 -15.3246 87.415
lradius 52.7225
lwrist 5.17063
lhand -20.7335 -22.1564
lfingers 7.12502
lthumb 5.63168 7.7488
rfemur 13.9445 -0.223721 9.70605
rtibia 8.20319
rfoot -375.331 -4.36798
rtoes 5.72762
lfemur 14.9447 0.370197 -20.5283
ltibia 5.75431
lfoot 347.801 7.90794
ltoes -2.77555
441
root 44.7603 17.3663 -1.51329 -146.166 94.3472 -136.056
lowerback 9.01644 2.84339 -6.39098
upperback -0.596138 3.04357 -1.54297
thorax -5.94417 1.68639 1.53342
lowerneck -20.7664 0.297728 3.3506
upperneck 18.3701 -0.50079 -0.382269
head 9.19518 -0.0164821 -0.746733
rclavicle -8.94531e-016 1.19271e-014
rhumerus -44.602 -1.87706 -80.7768
rradius 45.8759
rwrist -15.9051
rhand -16.8548 -31.488
rfingers 7.12502
rthumb 9.37545 -61.2595
lclavicle -8.94531e-016 1.19271e-014
lhumerus -39.9299 -15.2718 87.4102
lradius 52.4778
lwrist 5.25622
lhand -20.4925 -21.9975
lfingers 7.12502
lthumb 5.86432 7.90137
rfemur 14.0917 0.00962045 9.78293
rtibia 8.05314
rfoot -375.377 -4.36295
rtoes 8.54447
lfemur 15.1653 0.411959 -20.4834
ltibia 5.61793
lfoot 347.723 7.97962
ltoes -2.93134
442
root 44.752 17.367 -1.50946 -148.158 94.2878 -138.083
lowerback 9.12382 2.84745 -6.26073
upperback -0.618654 3.05393 -1.51083
thorax -6.02414 1.68942 1.48729
lowerneck -21.0786 0.195537 2.88368
upperneck 18.7164 -0.618525 0.101377
head 9.37278 -0.0424837 -0.520723
rclavicle 2.04748e-014 -2.22639e-014
rhumerus -44.6165 -1.84751 -80.8841
rradius 46.0698
rwrist -15.7428
rhand -16.5305 -31.6342
rfingers 7.12502
rthumb 9.68838 -61.3914
lclavicle 2.04748e-014 -2.22639e-014
lhumerus -40.1031 -15.2787 87.4336
lradius 52.3019
lwrist 5.44089
lhand -20.3705 -22.18
lfingers 7.12502
lthumb 5.98208 7.71557
rfemur 13.9775 0.232168 10.1008
rtibia 8.09273
rfoot -375.496 -4.66879
rtoes 7.14891
lfemur 15.0578 0.454097 -20.2051
ltibia 5.71083
lfoot 347.695 7.94369
ltoes -3.84115
